::::: UnKnOwN Presents :::::


:::: Submarine 2011 DVDRip ::::


::NOTES::


Encoded By .......:UnKnOwN
Runtime ..........:1:57
IMDb URL .........:http://www.imdb.com/title/tt1440292/
Language .........:English
File Size ........:780mb
Release Date ......... 2011
Source ......... R1
File Type ......... Single AVI
PS3 Compatible ....... Sure why not
Genre ......... Comedy


::Video::


ID: 0
Format: MPEG-4 Visual 0
Format profile: Advanced Simple@L5
Format settings, BVOP: Yes
Format settings, QPel: No
Format settings, GMC: No warppoints
Format settings, Matrix: Custom
Codec ID: XVID
Codec ID/Hint: XviD
Duration: 1h 32mn
Bit rate: 898 Kbps
Width: 680 pixels
Height: 384 pixels
Display aspect ratio: 16:9
Frame rate: 23.976 fps
Color space: YUV
Chroma subsampling: 4:2:0
Bit depth: 8 bits
Scan type: Progressive
Bits/(Pixel*Frame): 0.143
Stream size: 597 MiB (79%)
Writing library: XviD 1.2.1 (UTC 2008-12-04)


::Audio::


ID: 1
Format: AC-3
Format/Info: Audio Coding 3
Mode extension: CM (complete main)
Codec ID: 2000
Duration: 1h 32mn
Bit rate mode: Constant
Bit rate: 224 Kbps
Channel(s): 2 channels
Channel positions: Front: L R
Sampling rate: 48.0 KHz
Bit depth: 16 bits
Stream size: 149 MiB (20%)
Alignment: Aligned on interleaves
Interleave, duration: 42 ms (1.00 video frame)
Interleave, preload duration: 512 ms


::SYSPNOSIS::


15-year-old Oliver Tate has two objectives: To lose his virginity before his
next birthday, and to extinguish the flame between his mother and an ex-lover
who has resurfaced in her life.


::More Information::

 
http://www.postimg.com/image/42000/photo-41687.jpg


::Screens::

 
http://www.postimg.com/image/42000/photo-41691.jpg
 
http://www.postimg.com/image/42000/photo-41694.jpg
 
http://www.postimg.com/image/42000/photo-41696.jpg


ENJOY!